<?xml version="1.0" standalone="no"?><svg xmlns="http://www.w3.org/2000/svg" viewBox="0 0 1440 320"><path fill="#0099ff" fill-opacity="1" d="M0,128L20,106.7C40,85,80,43,120,42.7C160,43,200,85,240,90.7C280,96,320,64,360,85.3C400,107,440,181,480,229.3C520,277,560,299,600,304C640,309,680,299,720,272C760,245,800,203,840,154.7C880,107,920,53,960,64C1000,75,1040,149,1080,154.7C1120,160,1160,96,1200,90.7C1240,85,1280,139,1320,170.7C1360,203,1400,213,1420,218.7L1440,224L1440,0L1420,0C1400,0,1360,0,1320,0C1280,0,1240,0,1200,0C1160,0,1120,0,1080,0C1040,0,1000,0,960,0C920,0,880,0,840,0C800,0,760,0,720,0C680,0,640,0,600,0C560,0,520,0,480,0C440,0,400,0,360,0C320,0,280,0,240,0C200,0,160,0,120,0C80,0,40,0,20,0L0,0Z"></path></svg>